<svg xmlns="http://www.w3.org/2000/svg" xmlns:xlink="http://www.w3.org/1999/xlink" width="500" zoomAndPan="magnify" viewBox="0 0 375 374.999991" height="500" preserveAspectRatio="xMidYMid meet" version="1.0"><defs><clipPath id="eb768f7b52"><path d="M 0 25 L 375 25 L 375 375 L 0 375 Z M 0 25 " clip-rule="nonzero"/></clipPath><clipPath id="17b40c2720"><path d="M 45.011719 470.390625 L -45.210938 279.9375 L 491.929688 25.484375 L 582.152344 215.9375 Z M 45.011719 470.390625 " clip-rule="nonzero"/></clipPath><clipPath id="e972214cdc"><path d="M -0.0976562 375.164062 L 491.851562 25.523438 L 582.074219 215.976562 Z M -0.0976562 375.164062 " clip-rule="nonzero"/></clipPath><clipPath id="26c544cf1c"><path d="M 15.484375 398.691406 L -23.144531 356.019531 L 418.726562 -44 L 457.355469 -1.332031 Z M 15.484375 398.691406 " clip-rule="nonzero"/></clipPath><clipPath id="94105d21f1"><path d="M -3.832031 377.355469 L 418.675781 -43.957031 L 457.304688 -1.285156 Z M -3.832031 377.355469 " clip-rule="nonzero"/></clipPath><clipPath id="ee41e0e08f"><path d="M 25.285156 407.183594 L -26.011719 343.472656 L 432.894531 -26.027344 L 484.191406 37.683594 Z M 25.285156 407.183594 " clip-rule="nonzero"/></clipPath><clipPath id="5b7c1b77bf"><path d="M -0.363281 375.328125 L 432.820312 -25.96875 L 484.117188 37.742188 Z M -0.363281 375.328125 " clip-rule="nonzero"/></clipPath></defs><g clip-path="url(#eb768f7b52)"><g clip-path="url(#17b40c2720)"><g clip-path="url(#e972214cdc)"><path fill="#fc6c84" d="M 45.011719 470.390625 L -45.210938 279.9375 L 491.929688 25.484375 L 582.152344 215.9375 Z M 45.011719 470.390625 " fill-opacity="1" fill-rule="nonzero"/></g></g></g><g clip-path="url(#26c544cf1c)"><g clip-path="url(#94105d21f1)"><path fill="#fdffd9" d="M 15.484375 398.691406 L -23.144531 356.019531 L 418.726562 -44 L 457.355469 -1.332031 Z M 15.484375 398.691406 " fill-opacity="1" fill-rule="nonzero"/></g></g><g clip-path="url(#ee41e0e08f)"><g clip-path="url(#5b7c1b77bf)"><path fill="#ffcc98" d="M 25.285156 407.183594 L -26.011719 343.472656 L 432.894531 -26.027344 L 484.191406 37.683594 Z M 25.285156 407.183594 " fill-opacity="1" fill-rule="nonzero"/></g></g></svg>